<svg xmlns="http://www.w3.org/2000/svg"
shape-rendering="geometricPrecision"
width="4000" height="4000" viewBox="0 0 1024 1024">
  <metadata>null</metadata>

<path d="
M 133.776 623.362
C 138.519 623.342 143.263 623.313 148.007 623.335
C 148.705 623.338 152.011 622.974 152.302 623.515
C 152.481 644.003 152.187 664.511 152.222 685.002
C 152.232 691.169 152.247 697.336 152.273 703.503
C 152.286 706.544 151.991 709.767 152.327 712.785
C 146.334 712.226 140.016 712.844 133.993 712.864
C 133.111 711.896 133.706 708.338 133.7 707.006
C 133.674 701.672 133.713 696.337 133.717 691.003
C 133.729 675.503 133.695 660.003 133.721 644.503
C 133.729 639.837 133.744 635.171 133.712 630.505
C 133.697 628.251 133.236 625.548 133.776 623.362 Z"
opacity="1" fill="rgb(67,68,68)" fill-rule="evenodd" />
<path d="
M 165.844 647.405
C 166.697 646.576 169.076 646.912 170.259 646.908
C 174.405 646.895 178.604 646.716 182.745 646.914
C 183.11 648.066 182.838 649.646 182.859 650.857
C 182.902 653.443 182.952 655.994 183.046 658.564
C 183.616 658.505 183.946 657.24 184.194 656.799
C 185.148 655.098 186.439 653.582 187.748 652.144
C 191.4 648.131 196.296 645.547 201.759 645.377
C 203.081 645.335 204.929 645.068 206.163 645.601
C 206.214 651.79 205.866 658.046 206.065 664.226
C 205.983 664.053 205.12 663.998 205.001 663.977
C 203.688 663.738 202.344 663.537 201.008 663.488
C 195.145 663.276 189.587 665.948 186.412 670.981
C 183.301 675.912 183.636 681.904 183.608 687.497
C 183.579 693.166 183.642 698.834 183.692 704.503
C 183.716 707.204 183.433 710.076 183.741 712.755
C 177.979 712.361 171.741 712.429 165.982 712.859
C 165.36 712.073 165.835 709.536 165.829 708.5
C 165.803 704.334 165.818 700.167 165.815 696
C 165.801 679.802 165.67 663.602 165.844 647.405 Z"
opacity="1" fill="rgb(66,66,67)" fill-rule="evenodd" />
<path d="
M 209.972 677.607
C 210.298 672.441 211.523 667.423 214.042 662.87
C 222.779 647.084 244.19 640.719 260.378 648.64
C 268.022 652.381 273.886 659.013 277.02 666.872
C 279.062 671.991 279.632 677.503 279.266 682.977
C 277.648 707.156 249.946 720.658 228.772 710.979
C 221.212 707.523 215.51 700.938 212.257 693.405
C 210.131 688.483 209.636 682.909 209.972 677.607 Z
M 227.892 675.088
C 226.785 681.886 227.976 690.086 233.522 694.76
C 243.666 703.309 258.757 696.305 260.996 683.892
C 262.21 677.163 260.638 668.644 255.051 664.203
C 244.787 656.043 229.943 662.488 227.892 675.088 Z"
opacity="1" fill="rgb(62,62,62)" fill-rule="evenodd" />
<path d="
M 285.446 675.111
C 286.738 667.428 288.947 659.826 294.748 654.19
C 302.938 646.234 316.395 642.278 327.141 647.491
C 330.908 649.319 334.001 652.352 336.566 655.591
C 336.972 653.747 336.646 651.335 336.573 649.444
C 336.556 649.017 336.268 647.736 336.439 647.383
C 336.974 646.271 339.489 646.771 340.5 646.754
C 344.938 646.684 349.392 646.638 353.828 646.687
C 353.576 655.307 353.28 664.371 353.891 672.969
C 353.677 681.954 353.865 690.977 353.876 699.966
C 353.882 704.587 354.129 709.303 353.465 713.892
C 352.264 722.196 347.749 730.199 340.532 734.734
C 328.73 742.149 312.096 742.245 299.414 737.127
C 296.007 735.752 292.799 733.808 289.872 731.596
C 289.382 731.226 287.263 730.002 287.351 729.517
C 291.204 727.239 295.82 722.643 298.057 718.751
C 299.203 719.221 300.117 720.143 301.191 720.759
C 303.553 722.114 306.097 723.295 308.696 724.113
C 317.55 726.9 329.743 726.486 334.383 717.03
C 335.351 715.057 335.799 712.974 336.061 710.806
C 336.391 708.073 336.562 704.929 336.109 702.207
C 334.668 703.323 333.584 704.979 332.175 706.181
C 329.093 708.812 325.252 710.743 321.296 711.631
C 318.313 712.3 315.163 712.422 312.122 712.181
C 293.563 710.715 283.76 692.204 285.446 675.111 Z
M 303.409 676.609
C 302.658 683.455 304.954 690.728 311.02 694.498
C 321.22 700.835 334.907 693.921 336.282 682.185
C 336.955 676.436 336.366 670.659 332.533 666.068
C 326.575 658.934 315.052 658.623 308.477 665.033
C 305.431 668.002 303.863 672.469 303.409 676.609 Z"
opacity="1" fill="rgb(63,64,64)" fill-rule="evenodd" />
<path d="
M 318.004 348.555
C 317.662 349.379 317.905 350.483 317.643 351.314
C 317.413 352.043 317.122 351.647 316.891 352.154
C 316.667 352.644 317.083 353.409 317.113 353.924
C 316.582 358.509 317.108 363.386 317.143 368.001
C 317.187 373.838 316.765 379.858 317.779 385.607
C 319.671 386.934 323.79 386.275 326 386.289
C 332.658 386.331 339.352 386.113 346 386.438
C 345.819 387.577 345.532 389.304 344.298 389.804
C 342.117 390.687 338.952 390.188 336.66 390.097
C 332.175 389.92 327.559 390.257 323.106 389.923
C 321.389 390.006 322.045 391.033 322.81 391.898
C 324.001 393.244 325.3 394.697 327.118 395.123
C 329.368 395.651 331.788 395.357 334.079 395.426
C 338.888 395.571 343.685 395.696 348.497 395.657
C 363.119 395.54 377.754 396.345 392.365 396.033
C 396.172 395.951 400.002 395.805 403.808 395.852
C 404.53 395.861 406.886 395.398 407.443 395.895
C 406.216 397.113 404.955 399.041 403.52 399.942
C 385.697 399.49 367.823 399.771 349.994 399.741
C 344.66 399.732 339.326 399.727 333.992 399.739
C 331.702 399.744 328.878 400.253 326.65 399.733
C 325.308 399.419 323.966 397.629 322.981 396.715
C 320.555 394.46 318.282 392.051 315.873 389.78
C 314.692 388.667 312.888 387.536 312.199 386.048
C 311.96 382.239 312.261 378.323 312.267 374.503
C 312.281 365.923 312.342 357.32 312.18 348.744
C 314.117 348.584 316.061 348.602 318.004 348.555 Z"
opacity="1" fill="rgb(72,73,73)" fill-rule="evenodd" />
<path d="
M 318.004 348.555
C 328.226 348.336 338.468 348.801 348.694 348.627
C 349.638 354.858 348.163 361.429 348.835 367.705
C 352.058 368.224 355.73 367.771 358.999 367.78
C 366.007 367.799 373.021 367.772 380.027 367.903
C 380.351 368.225 380.266 368.854 380.569 369.118
C 380.964 369.462 381.545 369.228 381.991 369.497
C 382.638 369.887 382.954 370.882 383.227 371.533
C 383.232 371.777 380.406 371.675 379.999 371.678
C 376.664 371.703 373.329 371.756 369.994 371.774
C 364.529 371.803 359.063 371.812 353.598 371.852
C 350.743 371.872 347.624 372.19 344.799 371.751
C 344.34 365.493 344.265 359.28 344.336 353.005
C 343.208 352.27 339.884 352.854 338.498 352.85
C 333.398 352.835 328.295 352.988 323.196 352.891
C 321.454 352.858 318.244 352.345 317.113 353.924
C 317.083 353.409 316.667 352.644 316.891 352.154
C 317.122 351.647 317.413 352.043 317.643 351.314
C 317.905 350.483 317.662 349.379 318.004 348.555 Z"
opacity="1" fill="rgb(145,144,145)" fill-rule="evenodd" />
<path d="
M 317.113 353.924
C 318.244 352.345 321.454 352.858 323.196 352.891
C 328.295 352.988 333.398 352.835 338.498 352.85
C 339.884 352.854 343.208 352.27 344.336 353.005
C 344.265 359.28 344.34 365.493 344.799 371.751
C 347.624 372.19 350.743 371.872 353.598 371.852
C 359.063 371.812 364.529 371.803 369.994 371.774
C 373.329 371.756 376.664 371.703 379.999 371.678
C 380.406 371.675 383.232 371.777 383.227 371.533
C 382.954 370.882 382.638 369.887 381.991 369.497
C 381.545 369.228 380.964 369.462 380.569 369.118
C 380.266 368.854 380.351 368.225 380.027 367.903
C 380.736 367.831 380.597 365.144 380.602 364.488
C 380.632 360.659 380.679 356.829 380.7 353
C 380.923 354.12 382.752 352.552 383.319 352.503
C 386.292 353.053 389.487 352.788 392.501 352.778
C 397.798 352.76 403.097 352.672 408.394 352.684
C 410.3 352.689 412.21 352.702 414.115 352.659
C 414.699 352.645 415.595 352.464 416.028 352.998
C 416.203 353.214 416.149 353.737 416.23 354.009
C 416.257 364.875 417.073 376.065 416.24 386.897
C 416.149 387.132 413.023 386.573 412.444 386.526
C 408.105 386.172 403.745 386.313 399.396 386.3
C 387.265 386.266 375.13 386.221 362.999 386.292
C 357.391 386.325 351.583 385.909 346 386.438
C 339.352 386.113 332.658 386.331 326 386.289
C 323.79 386.275 319.671 386.934 317.779 385.607
C 316.765 379.858 317.187 373.838 317.143 368.001
C 317.108 363.386 316.582 358.509 317.113 353.924 Z"
opacity="1" fill="rgb(140,140,140)" fill-rule="evenodd" />
<path d="
M 346 386.438
C 351.583 385.909 357.391 386.325 362.999 386.292
C 375.13 386.221 387.265 386.266 399.396 386.3
C 403.745 386.313 408.105 386.172 412.444 386.526
C 413.023 386.573 416.149 387.132 416.24 386.897
C 415.937 387.808 414.484 388.747 413.792 389.45
C 411.726 391.546 409.762 394.092 407.443 395.895
C 406.886 395.398 404.53 395.861 403.808 395.852
C 400.002 395.805 396.172 395.951 392.365 396.033
C 377.754 396.345 363.119 395.54 348.497 395.657
C 343.685 395.696 338.888 395.571 334.079 395.426
C 331.788 395.357 329.368 395.651 327.118 395.123
C 325.3 394.697 324.001 393.244 322.81 391.898
C 322.045 391.033 321.389 390.006 323.106 389.923
C 327.559 390.257 332.175 389.92 336.66 390.097
C 338.952 390.188 342.117 390.687 344.298 389.804
C 345.532 389.304 345.819 387.577 346 386.438 Z"
opacity="1" fill="rgb(109,110,111)" fill-rule="evenodd" />
<path d="
M 356.971 411.3
C 356.287 415.686 356.874 420.555 356.876 425.003
C 356.881 435.267 357.135 445.536 357.179 455.791
C 353.525 456.713 351.763 458.108 350.037 461.446
C 349.194 461.884 346.93 461.409 345.93 461.405
C 343.786 461.396 341.647 461.553 339.504 461.541
C 337.736 461.531 336.098 461.256 334.391 461.859
C 333.331 456.595 334.195 450.371 334.206 445.003
C 334.227 433.837 334.277 422.669 334.424 411.507
C 337.552 410.752 341.292 411.254 344.504 411.252
C 348.498 411.249 353.041 410.647 356.971 411.3 Z"
opacity="1" fill="rgb(80,96,104)" fill-rule="evenodd" />
<path d="
M 334.391 461.859
C 336.098 461.256 337.736 461.531 339.504 461.541
C 341.647 461.553 343.786 461.396 345.93 461.405
C 346.93 461.409 349.194 461.884 350.037 461.446
C 351.763 458.108 353.525 456.713 357.179 455.791
C 357.135 445.536 356.881 435.267 356.876 425.003
C 356.874 420.555 356.287 415.686 356.971 411.3
C 359.463 411.201 361.936 411.03 364.418 411.274
C 363.898 412.665 364.211 414.514 364.233 416.003
C 364.276 418.835 364.24 421.669 364.242 424.501
C 364.249 435.027 364.513 445.577 364.139 456.098
C 364.896 456.977 366.25 457.396 367.139 458.218
C 368.899 459.844 369.699 462.266 369.866 464.608
C 370.405 472.144 362.681 479.23 355.231 475.2
C 352.519 473.732 351.169 471.598 350.047 468.858
C 349.426 468.331 346.921 468.786 346.005 468.781
C 342.138 468.756 338.252 468.705 334.393 468.892
C 334.238 466.596 334.038 464.142 334.391 461.859 Z"
opacity="1" fill="rgb(56,228,253)" fill-rule="evenodd" />
<path d="
M 334.393 468.892
C 338.252 468.705 342.138 468.756 346.005 468.781
C 346.921 468.786 349.426 468.331 350.047 468.858
C 351.169 471.598 352.519 473.732 355.231 475.2
C 362.681 479.23 370.405 472.144 369.866 464.608
C 369.699 462.266 368.899 459.844 367.139 458.218
C 366.25 457.396 364.896 456.977 364.139 456.098
C 364.513 445.577 364.249 435.027 364.242 424.501
C 364.24 421.669 364.276 418.835 364.233 416.003
C 364.211 414.514 363.898 412.665 364.418 411.274
C 366.979 410.865 369.901 411.255 372.505 411.261
C 373.726 411.264 375.257 410.993 376.426 411.319
C 375.788 413.415 376.138 415.991 376.098 418.175
C 376.037 421.602 375.345 425.556 376.006 428.923
C 378.909 432.3 383.539 434.823 386.981 437.682
C 396.488 445.581 406.078 453.376 415.72 461.111
C 418.658 463.469 421.608 465.853 424.642 468.086
C 426.733 469.626 429.069 471.064 430.822 472.995
C 429.427 474.921 427.715 476.19 427.435 478.746
C 426.997 482.749 429.494 487.448 433.351 488.867
C 438.908 490.911 446.133 487.433 446.694 481.292
C 446.909 478.938 446.534 476.454 444.923 474.635
C 444.128 473.737 441.873 472.59 441.691 471.493
C 450.336 463.082 460.302 455.527 469.829 448.128
C 472.395 446.135 474.917 444.084 477.5 442.114
C 478.88 441.062 480.528 440.124 481.727 438.866
C 482.218 437.287 481.565 434.723 481.543 433.022
C 481.483 428.346 481.429 423.67 481.407 418.994
C 481.345 405.663 481.276 392.327 481.31 378.996
C 481.321 374.829 481.359 370.661 481.371 366.494
C 481.376 364.517 481.04 362.318 481.353 360.378
C 482.504 359.94 483.786 360.191 485.004 360.182
C 487.338 360.164 489.671 360.164 492.004 360.162
C 493.047 360.161 494.546 359.856 495.458 360.382
C 495.153 363.126 495.583 366.021 495.577 368.789
C 495.562 375.193 495.572 381.596 495.601 388
C 495.682 405.333 495.493 422.666 495.582 439.999
C 495.617 446.833 495.777 453.663 495.79 460.497
C 495.793 462.187 495.84 463.871 495.96 465.557
C 496.023 466.439 496.334 466.979 495.737 467.666
C 486.973 473.292 478.714 479.729 470.196 485.723
C 467.53 487.599 464.825 489.424 462.191 491.347
C 460.939 492.261 459.319 493.299 458.46 494.597
C 458.143 501.705 458.415 508.889 458.425 516.005
C 458.442 529.009 458.432 542 458.433 555.006
C 458.433 560.173 458.447 565.34 458.449 570.508
C 458.449 573.079 458.711 575.877 458.395 578.419
C 455.62 576.359 452.084 574.533 449 572.971
C 448.279 571.816 448.812 569.583 448.852 568.242
C 448.968 564.322 449.071 560.421 449.07 556.498
C 449.066 541.357 448.695 526.198 448.863 511.053
C 447.792 509.805 446.145 509.01 444.879 507.961
C 441.055 504.791 437.164 501.688 433.384 498.464
C 422.227 488.947 411.173 479.312 399.96 469.857
C 396.195 466.682 392.404 463.53 388.561 460.449
C 387.043 459.232 384.317 457.75 383.373 456.054
C 382.895 452.121 384.34 447.731 383.092 443.841
C 380.884 443.22 378.529 442.84 376.238 442.793
C 375.651 446.666 376.281 451.075 376.293 455
C 376.299 456.721 376.027 458.955 376.812 460.545
C 377.758 462.461 381.018 463.464 382.694 464.678
C 387.182 467.931 391.19 471.855 395.476 475.367
C 411.133 488.195 425.912 502.198 441.869 514.637
C 442.096 515.891 441.815 517.318 441.783 518.59
C 441.711 521.393 441.713 524.197 441.709 527.001
C 441.698 536.334 441.714 545.668 441.725 555.001
C 441.729 558.001 441.749 561.002 441.704 564.002
C 441.679 565.603 441.414 567.49 441.933 569.02
C 437.858 566.814 433.776 564.444 429.781 562.083
C 428.976 559.318 429.731 555.398 429.747 552.501
C 429.783 545.686 429.621 538.853 429.891 532.042
C 426.794 529.167 423.093 526.769 419.888 523.958
C 410.823 516.007 401.914 507.869 392.73 500.054
C 389.18 497.033 385.663 493.966 382.229 490.813
C 380.528 489.251 378.965 487.213 377.04 485.945
C 375.763 485.604 374.105 485.894 372.775 485.907
C 370.079 485.933 367.384 485.946 364.688 485.923
C 358.121 485.869 351.567 486.043 344.999 486.067
C 341.64 486.079 337.658 485.535 334.401 486.399
C 334.005 484.421 334.276 482.031 334.266 480.002
C 334.247 476.319 334.065 472.563 334.393 468.892 Z"
opacity="1" fill="rgb(87,127,146)" fill-rule="evenodd" />
<path d="
M 334.401 486.399
C 337.658 485.535 341.64 486.079 344.999 486.067
C 351.567 486.043 358.121 485.869 364.688 485.923
C 367.384 485.946 370.079 485.933 372.775 485.907
C 374.105 485.894 375.763 485.604 377.04 485.945
C 378.965 487.213 380.528 489.251 382.229 490.813
C 385.663 493.966 389.18 497.033 392.73 500.054
C 401.914 507.869 410.823 516.007 419.888 523.958
C 423.093 526.769 426.794 529.167 429.891 532.042
C 429.621 538.853 429.783 545.686 429.747 552.501
C 429.731 555.398 428.976 559.318 429.781 562.083
C 427.481 560.798 424.369 559.802 422.452 557.975
C 421.95 552.692 422.275 547.302 422.293 541.999
C 422.299 540.081 422.97 536.975 422.208 535.205
C 421.671 533.957 419.732 532.895 418.723 532.024
C 415.429 529.178 412.059 526.419 408.785 523.55
C 402.23 517.809 395.648 512.072 389.176 506.236
C 384.4 501.929 379.683 497.277 374.579 493.369
C 370.039 492.465 364.64 493.244 360.004 493.212
C 354.503 493.174 349.006 493.224 343.506 493.257
C 340.491 493.276 337.376 493.018 334.386 493.384
C 334.382 491.054 334.206 488.724 334.401 486.399 Z"
opacity="1" fill="rgb(47,222,252)" fill-rule="evenodd" />
<path d="
M 334.386 493.384
C 337.376 493.018 340.491 493.276 343.506 493.257
C 349.006 493.224 354.503 493.174 360.004 493.212
C 364.64 493.244 370.039 492.465 374.579 493.369
C 379.683 497.277 384.4 501.929 389.176 506.236
C 395.648 512.072 402.23 517.809 408.785 523.55
C 412.059 526.419 415.429 529.178 418.723 532.024
C 419.732 532.895 421.671 533.957 422.208 535.205
C 422.97 536.975 422.299 540.081 422.293 541.999
C 422.275 547.302 421.95 552.692 422.452 557.975
C 419.725 557.347 416.73 554.786 414.304 553.383
C 408.501 550.027 402.575 546.328 396.554 543.41
C 395.784 542.077 397.043 540.7 396.011 539.346
C 394.425 537.265 391.797 535.789 389.725 534.233
C 386.47 531.788 383.398 529.084 380.285 526.463
C 378.469 524.935 376.318 523.384 374.965 521.411
C 374.681 519.837 375.349 517.996 375.281 516.369
C 375.163 513.505 373.011 510.736 370.661 509.236
C 368.288 507.72 364.727 507.226 362.075 508.267
C 357.144 510.203 354.014 516.423 357.044 521.024
C 355.209 520.402 353.538 519.12 351.868 518.15
C 349.046 516.511 346.197 514.915 343.375 513.276
C 340.551 511.637 336.706 510.233 334.272 508.089
C 333.618 503.555 333.968 497.949 334.386 493.384 Z"
opacity="1" fill="rgb(78,101,113)" fill-rule="evenodd" />
<path d="
M 396.554 543.41
C 391.669 541.262 386.769 538.512 382.208 535.741
C 380.164 534.499 378.248 532.932 376.126 531.839
C 375.1 530.708 374.067 529.805 372.904 528.818
C 372.134 528.198 371.416 527.132 370.525 526.715
C 369.767 526.361 369.286 527.224 369.602 527.862
C 366.483 526.333 363.468 524.723 360.409 523.072
C 359.359 522.506 357.802 521.967 357.044 521.024
C 354.014 516.423 357.144 510.203 362.075 508.267
C 364.727 507.226 368.288 507.72 370.661 509.236
C 373.011 510.736 375.163 513.505 375.281 516.369
C 375.349 517.996 374.681 519.837 374.965 521.411
C 376.318 523.384 378.469 524.935 380.285 526.463
C 383.398 529.084 386.47 531.788 389.725 534.233
C 391.797 535.789 394.425 537.265 396.011 539.346
C 397.043 540.7 395.784 542.077 396.554 543.41 Z"
opacity="1" fill="rgb(35,216,251)" fill-rule="evenodd" />
<path d="
M 363.396 690.091
C 363.876 687.86 364.314 685.806 365.433 683.782
C 370.778 674.114 382.499 672.684 392.409 672.036
C 395.651 671.824 398.889 672.069 402.136 672.052
C 402.715 672.049 405.145 672.491 405.471 672.103
C 405.678 669.083 405.432 665.827 403.517 663.305
C 399.387 657.864 388.978 659.184 383.445 661.253
C 381.837 661.854 380.312 662.732 378.892 663.689
C 378.136 664.198 377.477 665.045 376.61 665.356
C 374.964 663.115 373.264 661.037 371.313 659.035
C 370.14 657.831 368.422 656.501 367.655 655.01
C 370.332 652.758 373.257 650.664 376.458 649.199
C 390.761 642.649 415.381 643.262 421.167 661.01
C 423.039 666.751 422.451 672.916 422.453 678.846
C 422.455 690.042 421.694 701.681 422.786 712.827
C 417.258 712.695 411.701 712.707 406.172 712.671
C 405.003 711.072 405.723 707.245 405.448 705.277
C 404.438 705.379 402.947 707.489 402.234 708.176
C 400.05 710.28 397.22 712.122 394.29 712.968
C 382.208 716.454 366.681 711.766 363.72 698.095
C 363.152 695.475 363.059 692.748 363.396 690.091 Z
M 380.326 690.539
C 378.843 696.763 383.999 700.962 389.604 701.525
C 395.271 702.093 402.236 699.231 404.501 693.657
C 405.069 692.259 405.132 690.517 405.211 689.024
C 405.275 687.831 405.414 686.489 405.071 685.331
C 403.346 684.494 401.423 684.355 399.551 684.1
C 392.771 683.176 383.346 683.258 380.326 690.539 Z"
opacity="1" fill="rgb(64,65,65)" fill-rule="evenodd" />
<path d="
M 376.126 531.839
C 373.857 530.668 371.829 529.095 369.602 527.862
C 369.286 527.224 369.767 526.361 370.525 526.715
C 371.416 527.132 372.134 528.198 372.904 528.818
C 374.067 529.805 375.1 530.708 376.126 531.839 Z"
opacity="0.996" fill="rgb(61,86,120)" fill-rule="evenodd" />
<path d="
M 376.426 411.319
C 378.772 411.308 381.158 411.145 383.498 411.296
C 382.818 412.38 383.148 414.029 383.157 415.29
C 383.178 418.181 382.221 422.179 382.973 424.935
C 387.209 429.168 391.948 432.52 396.578 436.278
C 404.152 442.425 411.639 448.693 419.139 454.931
C 422.695 457.889 426.293 460.79 429.908 463.675
C 431.509 464.952 433.491 466.96 435.552 467.372
C 436.742 466.932 437.651 465.312 438.544 464.428
C 440.609 462.382 443.051 460.407 445.381 458.667
C 450.506 454.838 455.235 450.494 460.307 446.596
C 464.873 443.086 469.941 439.486 473.891 435.286
C 474.442 433.383 473.99 430.972 473.983 429.001
C 473.966 424.5 473.932 419.999 473.833 415.498
C 473.557 402.84 473.814 390.16 473.836 377.499
C 473.842 373.712 473.862 369.926 473.902 366.139
C 473.921 364.272 473.666 362.102 474.273 360.319
C 475.845 359.673 477.726 359.911 479.394 359.977
C 480.021 360.002 480.949 359.836 481.353 360.378
C 481.04 362.318 481.376 364.517 481.371 366.494
C 481.359 370.661 481.321 374.829 481.31 378.996
C 481.276 392.327 481.345 405.663 481.407 418.994
C 481.429 423.67 481.483 428.346 481.543 433.022
C 481.565 434.723 482.218 437.287 481.727 438.866
C 480.528 440.124 478.88 441.062 477.5 442.114
C 474.917 444.084 472.395 446.135 469.829 448.128
C 460.302 455.527 450.336 463.082 441.691 471.493
C 441.873 472.59 444.128 473.737 444.923 474.635
C 446.534 476.454 446.909 478.938 446.694 481.292
C 446.133 487.433 438.908 490.911 433.351 488.867
C 429.494 487.448 426.997 482.749 427.435 478.746
C 427.715 476.19 429.427 474.921 430.822 472.995
C 429.069 471.064 426.733 469.626 424.642 468.086
C 421.608 465.853 418.658 463.469 415.72 461.111
C 406.078 453.376 396.488 445.581 386.981 437.682
C 383.539 434.823 378.909 432.3 376.006 428.923
C 375.345 425.556 376.037 421.602 376.098 418.175
C 376.138 415.991 375.788 413.415 376.426 411.319 Z"
opacity="1" fill="rgb(74,236,254)" fill-rule="evenodd" />
<path d="
M 449 572.971
C 446.749 571.815 443.88 570.62 441.933 569.02
C 441.414 567.49 441.679 565.603 441.704 564.002
C 441.749 561.002 441.729 558.001 441.725 555.001
C 441.714 545.668 441.698 536.334 441.709 527.001
C 441.713 524.197 441.711 521.393 441.783 518.59
C 441.815 517.318 442.096 515.891 441.869 514.637
C 425.912 502.198 411.133 488.195 395.476 475.367
C 391.19 471.855 387.182 467.931 382.694 464.678
C 381.018 463.464 377.758 462.461 376.812 460.545
C 376.027 458.955 376.299 456.721 376.293 455
C 376.281 451.075 375.651 446.666 376.238 442.793
C 378.529 442.84 380.884 443.22 383.092 443.841
C 384.34 447.731 382.895 452.121 383.373 456.054
C 384.317 457.75 387.043 459.232 388.561 460.449
C 392.404 463.53 396.195 466.682 399.96 469.857
C 411.173 479.312 422.227 488.947 433.384 498.464
C 437.164 501.688 441.055 504.791 444.879 507.961
C 446.145 509.01 447.792 509.805 448.863 511.053
C 448.695 526.198 449.066 541.357 449.07 556.498
C 449.071 560.421 448.968 564.322 448.852 568.242
C 448.812 569.583 448.279 571.816 449 572.971 Z"
opacity="1" fill="rgb(56,228,253)" fill-rule="evenodd" />
<path d="
M 416.23 354.009
C 416.149 353.737 416.203 353.214 416.028 352.998
C 415.595 352.464 414.699 352.645 414.115 352.659
C 412.21 352.702 410.3 352.689 408.394 352.684
C 403.097 352.672 397.798 352.76 392.501 352.778
C 389.487 352.788 386.292 353.053 383.319 352.503
C 382.752 352.552 380.923 354.12 380.7 353
C 380.674 351.615 380.601 350.208 380.681 348.825
C 388.283 348.618 395.895 348.724 403.501 348.698
C 407.571 348.684 412.103 348.158 416.118 348.788
C 416.306 350.508 416.233 352.281 416.23 354.009 Z"
opacity="1" fill="rgb(198,197,198)" fill-rule="evenodd" />
<path d="
M 383.498 411.296
C 387.792 411.049 392.204 411.282 396.497 411.363
C 394.517 412.178 395.427 416.264 395.39 417.988
C 395.24 420.297 395.003 422.664 395.239 424.973
C 398.745 425.362 402.471 425.172 406.005 425.208
C 413.333 425.281 420.675 425.251 428.003 425.159
C 430.75 425.125 433.493 424.943 436.24 424.88
C 436.879 424.866 438.441 424.536 438.824 425.01
C 439.382 426.704 439.999 428.511 441.426 429.688
C 446.011 433.472 453.056 432.668 456.802 428.128
C 460.067 424.172 459.566 417.335 455.16 414.479
C 455.501 412.721 458.753 410.972 459.787 409.37
C 460.612 405.445 459.67 400.65 459.593 396.64
C 459.43 388.096 459.375 379.538 459.429 370.993
C 459.451 367.55 458.958 363.782 459.383 360.385
C 462.521 359.354 467.144 360.198 470.467 360.151
C 471.505 360.136 473.423 359.646 474.273 360.319
C 473.666 362.102 473.921 364.272 473.902 366.139
C 473.862 369.926 473.842 373.712 473.836 377.499
C 473.814 390.16 473.557 402.84 473.833 415.498
C 473.932 419.999 473.966 424.5 473.983 429.001
C 473.99 430.972 474.442 433.383 473.891 435.286
C 469.941 439.486 464.873 443.086 460.307 446.596
C 455.235 450.494 450.506 454.838 445.381 458.667
C 443.051 460.407 440.609 462.382 438.544 464.428
C 437.651 465.312 436.742 466.932 435.552 467.372
C 433.491 466.96 431.509 464.952 429.908 463.675
C 426.293 460.79 422.695 457.889 419.139 454.931
C 411.639 448.693 404.152 442.425 396.578 436.278
C 391.948 432.52 387.209 429.168 382.973 424.935
C 382.221 422.179 383.178 418.181 383.157 415.29
C 383.148 414.029 382.818 412.38 383.498 411.296 Z"
opacity="1" fill="rgb(90,132,153)" fill-rule="evenodd" />
<path d="
M 396.497 411.363
C 398.334 411.438 400.177 411.375 402.014 411.335
C 402.234 413.663 401.561 415.601 401.491 417.889
C 400.216 417.803 395.95 416.62 395.39 417.988
C 395.427 416.264 394.517 412.178 396.497 411.363 Z"
opacity="1" fill="rgb(58,163,187)" fill-rule="evenodd" />
<path d="
M 395.39 417.988
C 395.95 416.62 400.216 417.803 401.491 417.889
C 414.094 417.724 426.73 418.012 439.315 418.18
C 440.846 414.921 442.718 412.025 446.643 411.436
C 447.892 411.249 449.864 411.976 450.939 411.51
C 451.921 409.929 451.903 408.289 451.993 406.498
C 452.17 403 452.136 399.506 452.117 396.002
C 452.052 383.987 451.713 371.916 452.038 359.919
C 454.197 360.335 457.477 359.271 459.383 360.385
C 458.958 363.782 459.451 367.55 459.429 370.993
C 459.375 379.538 459.43 388.096 459.593 396.64
C 459.67 400.65 460.612 405.445 459.787 409.37
C 458.753 410.972 455.501 412.721 455.16 414.479
C 459.566 417.335 460.067 424.172 456.802 428.128
C 453.056 432.668 446.011 433.472 441.426 429.688
C 439.999 428.511 439.382 426.704 438.824 425.01
C 438.441 424.536 436.879 424.866 436.24 424.88
C 433.493 424.943 430.75 425.125 428.003 425.159
C 420.675 425.251 413.333 425.281 406.005 425.208
C 402.471 425.172 398.745 425.362 395.239 424.973
C 395.003 422.664 395.24 420.297 395.39 417.988 Z
M 441.413 421.047
C 441.326 421.725 441.339 421.385 441.373 422.068
C 442.491 425.128 446.846 426.212 449.757 425.884
C 452.223 424.645 452.279 420.109 450.463 418.333
C 447.483 415.418 442.958 417.932 441.413 421.047 Z"
opacity="1" fill="rgb(75,235,254)" fill-rule="evenodd" />
<path d="
M 402.014 411.335
C 412.268 410.908 422.581 411.496 432.844 411.308
C 433.948 404.296 433.067 396.588 433.079 389.497
C 433.096 379.809 433.882 369.887 433.174 360.224
C 439.318 359.882 445.978 360.956 452.038 359.919
C 451.713 371.916 452.052 383.987 452.117 396.002
C 452.136 399.506 452.17 403 451.993 406.498
C 451.903 408.289 451.921 409.929 450.939 411.51
C 449.864 411.976 447.892 411.249 446.643 411.436
C 442.718 412.025 440.846 414.921 439.315 418.18
C 426.73 418.012 414.094 417.724 401.491 417.889
C 401.561 415.601 402.234 413.663 402.014 411.335 Z"
opacity="1" fill="rgb(85,118,134)" fill-rule="evenodd" />
<path d="
M 452.936 308.798
C 451.567 309.684 450.278 310.647 448.855 311.471
C 448.048 310.913 448.135 309.683 448.181 308.833
C 448.339 304.215 448.194 299.579 448.342 294.956
C 448.375 293.953 449.143 290.976 448.633 290.291
C 438.014 290.219 427.327 290.083 416.72 290.65
C 416.307 291.33 416.583 292.223 416.565 292.991
C 416.522 294.813 416.475 296.637 416.444 298.461
C 416.334 304.949 416.04 311.391 415.73 317.797
C 415.687 318.695 415.282 321.168 414.698 321.787
C 414.195 322.319 413.779 321.378 413.292 321.383
C 412.379 321.391 411.225 322.709 411.086 320.998
C 411.069 309.429 411.716 297.71 411.057 286.16
C 419.355 285.312 427.983 285.918 436.322 285.94
C 439.715 285.949 443.105 286.029 446.497 286.023
C 448.484 286.02 450.693 285.807 452.642 286.179
C 452.884 291.77 452.699 297.394 452.754 302.99
C 452.766 304.226 452.201 307.89 452.936 308.798 Z"
opacity="1" fill="rgb(172,172,172)" fill-rule="evenodd" />
<path d="
M 411.086 320.998
C 411.225 322.709 412.379 321.391 413.292 321.383
C 413.779 321.378 414.195 322.319 414.698 321.787
C 415.282 321.168 415.687 318.695 415.73 317.797
C 416.04 311.391 416.334 304.949 416.444 298.461
C 416.475 296.637 416.522 294.813 416.565 292.991
C 416.583 292.223 416.307 291.33 416.72 290.65
C 427.327 290.083 438.014 290.219 448.633 290.291
C 449.143 290.976 448.375 293.953 448.342 294.956
C 448.194 299.579 448.339 304.215 448.181 308.833
C 448.135 309.683 448.048 310.913 448.855 311.471
C 447.83 313.251 451.162 312.641 452.147 312.662
C 455.933 312.743 459.714 312.779 463.501 312.775
C 470 312.769 476.501 312.797 482.999 312.655
C 484.494 312.623 485.988 312.518 487.483 312.499
C 487.982 312.493 489.013 312.743 489.39 312.363
C 489.149 311.912 487.988 311.632 487.518 311.238
C 486.933 310.569 486.54 309.833 486.359 308.96
C 486.02 306.514 486.251 303.965 486.252 301.498
C 486.253 296.964 486.219 292.465 486.538 287.945
C 487.757 288.035 487.999 288.923 488.911 289.556
C 489.656 290.073 490.558 290.178 491.434 290.271
C 495.544 290.708 499.738 290.383 503.86 290.311
C 508.406 290.231 512.951 290.352 517.497 290.316
C 519.958 290.297 522.414 290.275 524.874 290.218
C 525.331 290.207 527.003 290.4 527.231 289.968
C 526.659 288.759 525.012 287.449 526.99 286.315
C 528.031 286.254 529.112 286.068 530.14 286.265
C 530.485 293.496 530.248 300.786 530.384 308.029
C 529.917 308.663 529.029 310.045 528.451 310.531
C 528.038 310.878 527.42 310.927 527.132 311.442
C 526.855 311.937 526.989 312.042 527.178 312.402
C 530.697 313.224 534.894 312.828 538.499 312.833
C 544.998 312.841 551.498 312.884 557.997 312.861
C 560.496 312.853 562.991 312.808 565.489 312.755
C 566.275 312.739 567.53 313.05 567.561 312.116
C 568.524 305.126 568.242 297.813 568.257 290.767
C 570.888 290.186 573.814 290.415 576.498 290.4
C 580.997 290.374 585.497 290.382 589.996 290.372
C 593.35 290.365 597.795 289.564 601.015 290.476
C 601.019 300.808 601.009 311.158 601.072 321.496
C 601.087 323.974 601.184 326.578 600.78 329.013
C 600.58 330.216 601.606 330.722 600.17 331.707
C 600.314 331.041 599.002 331.356 598.496 331.359
C 596.497 331.37 594.498 331.395 592.499 331.398
C 587.333 331.409 582.167 331.405 577 331.416
C 561.336 331.448 545.667 331.664 529.997 331.595
C 503.055 331.477 476.096 331.519 449.166 331.544
C 442.942 331.549 436.718 331.49 430.494 331.525
C 428.619 331.536 427.762 331.49 426.217 332.501
C 425.393 333.04 424.795 332.651 424.421 333.853
C 424.366 335.028 425.218 335.913 424.83 337.128
C 424.579 337.169 424.183 337.02 424.076 337.252
C 423.992 337.435 425.034 338.429 425.186 338.602
C 426.55 340.147 427.389 342.109 428.74 343.603
C 429.181 345.198 429.958 346.666 430.499 348.221
C 428.032 348.146 426.231 345.802 424.503 344.29
C 421.627 341.772 418.912 339.11 416.111 336.516
C 414.427 334.957 412.455 333.463 411.093 331.606
C 410.686 328.199 411.088 324.443 411.086 320.998 Z"
opacity="1" fill="rgb(175,175,174)" fill-rule="evenodd" />
<path d="
M 600.17 331.707
C 599.653 332.907 598.538 333.574 597.757 334.623
C 597.014 335.604 596.223 336.526 595.195 337.208
C 590.226 337.045 585.181 336.465 580.17 336.353
C 553.795 335.761 527.378 336.379 500.999 336.367
C 475.623 336.354 450.167 335.866 424.83 337.128
C 425.218 335.913 424.366 335.028 424.421 333.853
C 424.795 332.651 425.393 333.04 426.217 332.501
C 427.762 331.49 428.619 331.536 430.494 331.525
C 436.718 331.49 442.942 331.549 449.166 331.544
C 476.096 331.519 503.055 331.477 529.997 331.595
C 545.667 331.664 561.336 331.448 577 331.416
C 582.167 331.405 587.333 331.409 592.499 331.398
C 594.498 331.395 596.497 331.37 598.496 331.359
C 599.002 331.356 600.314 331.041 600.17 331.707 Z"
opacity="1" fill="rgb(143,143,145)" fill-rule="evenodd" />
<path d="
M 424.83 337.128
C 450.167 335.866 475.623 336.354 500.999 336.367
C 527.378 336.379 553.795 335.761 580.17 336.353
C 585.181 336.465 590.226 337.045 595.195 337.208
C 593.342 339.007 591.723 341.09 589.767 342.786
C 590.141 342.279 589.839 341.909 589.197 342.109
C 587.604 342.607 586.088 343.213 584.288 343.477
C 580.128 344.085 575.969 344.152 571.776 344.3
C 558.995 344.752 546.282 344.635 533.506 344.22
C 520.736 343.804 507.926 344.107 495.149 344.069
C 481.262 344.028 467.385 343.673 453.496 343.808
C 447.196 343.87 440.799 344.125 434.506 343.788
C 433.09 343.712 431.728 343.348 430.323 343.192
C 429.806 343.135 428.953 342.992 428.74 343.603
C 427.389 342.109 426.55 340.147 425.186 338.602
C 425.034 338.429 423.992 337.435 424.076 337.252
C 424.183 337.02 424.579 337.169 424.83 337.128 Z"
opacity="1" fill="rgb(100,102,103)" fill-rule="evenodd" />
<path d="
M 589.767 342.786
C 588.703 343.909 587.164 344.579 586.177 345.736
C 585.643 346.361 585.759 347.817 585.485 348.091
C 547.55 348.183 509.63 347.717 471.704 348.079
C 458.01 348.21 444.173 347.416 430.499 348.221
C 429.958 346.666 429.181 345.198 428.74 343.603
C 428.953 342.992 429.806 343.135 430.323 343.192
C 431.728 343.348 433.09 343.712 434.506 343.788
C 440.799 344.125 447.196 343.87 453.496 343.808
C 467.385 343.673 481.262 344.028 495.149 344.069
C 507.926 344.107 520.736 343.804 533.506 344.22
C 546.282 344.635 558.995 344.752 571.776 344.3
C 575.969 344.152 580.128 344.085 584.288 343.477
C 586.088 343.213 587.604 342.607 589.197 342.109
C 589.839 341.909 590.141 342.279 589.767 342.786 Z"
opacity="1" fill="rgb(75,76,77)" fill-rule="evenodd" />
<path d="
M 428.851 646.756
C 432.171 646.608 435.532 647.045 438.84 646.805
C 438.454 640.973 438.966 635.076 438.709 629.232
C 444.606 628.888 450.437 628.56 456.27 627.548
C 456.047 633.949 456.561 640.391 456.258 646.792
C 457.007 647.3 459.517 646.749 460.501 646.754
C 464.753 646.776 469.015 646.65 473.263 646.732
C 472.836 651.051 472.578 656.577 473.292 660.857
C 467.809 660.802 462.006 660.268 456.565 661.03
C 455.805 663.575 456.339 666.931 456.333 669.579
C 456.32 675.553 456.32 681.528 456.337 687.503
C 456.346 690.817 456.048 694.398 458.886 696.72
C 462.992 700.08 468.06 697.944 472.668 697.637
C 472.859 701.596 473.161 705.547 473.379 709.507
C 473.413 710.122 474.056 712.594 473.547 712.958
C 468.061 713.44 462.384 714.365 456.874 713.771
C 448.531 712.872 441.084 707.151 439.298 698.748
C 438.454 694.781 438.817 690.527 438.84 686.499
C 438.89 678.081 439.527 669.372 438.942 660.983
C 435.732 660.535 432.18 660.82 428.944 660.917
C 428.311 660.331 428.729 658.35 428.736 657.5
C 428.762 653.925 428.987 650.328 428.851 646.756 Z"
opacity="1" fill="rgb(74,75,75)" fill-rule="evenodd" />
<path d="
M 441.413 421.047
C 442.958 417.932 447.483 415.418 450.463 418.333
C 452.279 420.109 452.223 424.645 449.757 425.884
C 446.846 426.212 442.491 425.128 441.373 422.068
C 441.339 421.385 441.326 421.725 441.413 421.047 Z"
opacity="1" fill="rgb(60,137,170)" fill-rule="evenodd" />
<path d="
M 448.855 311.471
C 450.278 310.647 451.567 309.684 452.936 308.798
C 455.286 308.021 458.523 308.586 460.997 308.571
C 466.82 308.535 472.632 308.438 478.454 308.409
C 480.321 308.4 482.188 308.343 484.054 308.34
C 484.791 308.339 485.876 308.343 486.359 308.96
C 486.54 309.833 486.933 310.569 487.518 311.238
C 487.988 311.632 489.149 311.912 489.39 312.363
C 489.013 312.743 487.982 312.493 487.483 312.499
C 485.988 312.518 484.494 312.623 482.999 312.655
C 476.501 312.797 470 312.769 463.501 312.775
C 459.714 312.779 455.933 312.743 452.147 312.662
C 451.162 312.641 447.83 313.251 448.855 311.471 Z"
opacity="0.996" fill="rgb(209,209,209)" fill-rule="evenodd" />
<path d="
M 479.455 676.101
C 480.752 668.436 482.953 660.926 488.47 655.103
C 500.441 642.467 521.747 641.917 534.154 654.106
C 539.387 659.247 542.543 666.773 543.157 674.031
C 543.462 677.633 542.555 681.882 543.289 685.36
C 531.789 684.522 520.026 685.299 508.502 685.33
C 505.678 685.338 502.851 685.38 500.027 685.334
C 499.056 685.318 497.424 685.056 496.764 685.833
C 497.158 687.832 497.556 689.725 498.574 691.522
C 503.154 699.611 512.701 700.699 520.774 697.939
C 522.912 697.208 524.916 696.16 526.85 695.005
C 527.822 694.424 528.872 693.331 530.004 693.196
C 532.922 697.166 537.191 699.727 540.751 702.977
C 539.951 704 538.532 704.681 537.485 705.425
C 533.792 708.049 530.301 710.283 525.982 711.752
C 509.53 717.352 489.31 711.8 481.922 694.887
C 479.383 689.074 478.778 682.368 479.455 676.101 Z
M 496.47 672.607
C 496.284 673.391 496.325 673.042 496.293 673.646
C 503.495 673.249 510.795 673.496 518.007 673.521
C 520.882 673.53 523.94 673.856 526.796 673.562
C 527.146 673.122 526.236 670.859 526.071 670.331
C 524.946 666.736 522.85 663.466 519.544 661.516
C 514.205 658.367 506.084 659.143 501.468 663.347
C 498.762 665.812 497.285 669.09 496.47 672.607 Z"
opacity="1" fill="rgb(65,66,67)" fill-rule="evenodd" />
<path d="
M 529.737 520.998
C 529.488 517.915 527.643 520.819 526.613 521.3
C 526.398 521.4 524.722 520.986 524.693 521.138
C 524.409 522.633 524.75 524.465 524.761 525.996
C 524.785 529.495 524.78 532.995 524.77 536.495
C 524.734 549.983 524.843 563.47 524.803 576.958
C 524.789 581.413 524.947 585.856 524.972 590.307
C 524.977 591.211 524.615 594.499 525.959 594.387
C 524.523 595.917 521.471 596.692 519.603 597.643
C 515.072 599.952 510.324 603.145 505.522 604.779
C 503.113 604.118 500.623 602.134 498.447 600.899
C 493.038 597.829 487.324 593.605 481.425 591.594
C 480.877 590.246 481.322 587.986 481.314 586.502
C 481.292 582.502 481.307 578.5 481.314 574.5
C 481.339 560.833 481.287 547.166 481.295 533.499
C 481.298 528.999 481.274 524.496 481.35 519.996
C 481.377 518.405 480.978 515.529 481.653 514.082
C 487.144 510.185 492.31 505.683 497.683 501.599
C 500.24 499.656 503.049 496.849 506.002 495.596
C 511.118 498.229 515.645 502.76 520.146 506.309
C 523.253 508.758 527.267 511.112 529.901 514.024
C 529.78 516.346 529.749 518.672 529.737 520.998 Z"
opacity="1" fill="rgb(93,102,107)" fill-rule="evenodd" />
<path d="
M 495.458 360.382
C 497.894 359.446 500.895 360.781 503.335 360.194
C 502.771 362.14 503.131 364.464 503.059 366.486
C 502.845 372.482 502.879 378.489 502.869 384.495
C 502.842 401.834 502.959 419.159 503.052 436.493
C 503.087 442.997 503.2 449.5 503.254 456.004
C 503.268 457.663 503.232 459.329 503.173 460.987
C 503.155 461.496 503.505 462.311 503.258 462.667
C 500.671 464.257 498.195 465.896 495.737 467.666
C 496.334 466.979 496.023 466.439 495.96 465.557
C 495.84 463.871 495.793 462.187 495.79 460.497
C 495.777 453.663 495.617 446.833 495.582 439.999
C 495.493 422.666 495.682 405.333 495.601 388
C 495.572 381.596 495.562 375.193 495.577 368.789
C 495.583 366.021 495.153 363.126 495.458 360.382 Z"
opacity="1" fill="rgb(87,233,254)" fill-rule="evenodd" />
<path d="
M 503.335 360.194
C 506.276 359.74 509.568 360.573 512.376 360.208
C 511.489 361.985 511.764 364.215 511.76 366.164
C 511.752 370.109 511.759 374.054 511.767 377.999
C 511.796 391.999 511.822 405.998 511.832 419.998
C 511.835 424.327 511.856 428.67 511.749 432.998
C 511.712 434.465 511.034 437.112 511.69 438.379
C 519.253 446 527.343 453.142 534.974 460.712
C 536.813 462.536 538.621 464.393 540.453 466.225
C 541.011 466.784 542.021 467.428 541.631 468.273
C 540.587 470.151 539.62 471.956 539.442 474.153
C 539.286 476.076 539.86 478.019 540.936 479.611
C 541.832 480.935 543.246 481.831 544.669 482.511
C 548.054 484.127 552.149 484.379 554.847 481.316
C 558.226 477.481 558.879 468.178 553.142 466.166
C 551.85 465.417 550.217 465.436 548.98 464.603
C 546.831 463.154 545.381 460.742 543.521 458.961
C 538.989 454.621 534.369 450.371 529.87 445.994
C 527.619 443.804 525.44 441.54 523.184 439.356
C 521.855 438.07 520.238 436.804 519.243 435.232
C 518.613 433.407 519.262 430.468 519.292 428.498
C 519.367 423.497 519.347 418.497 519.367 413.495
C 519.416 401.329 519.45 389.16 519.432 376.994
C 519.427 373.162 519.348 369.33 519.337 365.497
C 519.332 363.836 519.009 361.942 519.38 360.328
C 522.69 359.664 526.615 360.138 530 360.113
C 531.145 360.104 533.058 359.706 533.981 360.418
C 533.641 365.256 534.087 370.27 534.091 375.13
C 534.098 384.585 533.945 394.042 533.952 403.5
C 533.956 409.893 533.997 416.283 534.051 422.674
C 534.078 425.772 533.555 429.039 533.988 432.112
C 536.506 434.971 539.838 437.345 542.65 439.928
C 550.817 447.432 559.054 454.851 567.292 462.279
C 570.376 465.06 573.669 467.615 576.724 470.424
C 577.737 471.356 579.105 473.325 580.458 473.683
C 583.085 472.159 585.415 469.883 587.855 468.067
C 594.708 462.967 601.183 457.372 607.949 452.157
C 614.885 446.811 621.633 441.222 628.381 435.643
C 631.4 433.147 634.91 430.992 637.65 428.198
C 638.03 427.209 637.838 426.163 637.963 425.133
C 638.354 421.905 638.131 418.563 638.178 415.314
C 638.197 413.999 637.978 412.532 638.459 411.299
C 645.804 411.202 653.165 411.223 660.499 411.322
C 658.395 412.231 658.907 415.259 659.014 417.202
C 659.288 422.222 659.441 427.661 658.851 432.662
C 658.295 437.368 651.782 437.943 649.067 440.788
C 648.707 444.74 651.838 447.005 655.493 445.822
C 659.094 444.656 663.067 440.98 665.079 437.804
C 666.603 435.397 666.314 432.79 666.26 430.056
C 666.177 425.872 666.172 421.687 666.162 417.502
C 666.157 415.61 665.747 413.062 666.433 411.302
C 669.096 411.096 671.834 411.249 674.506 411.26
C 675.924 411.265 677.586 411.005 678.964 411.309
C 678.133 413.021 678.604 415.612 678.59 417.497
C 678.56 421.451 678.526 425.406 678.544 429.36
C 678.553 431.176 678.173 433.39 678.893 435.102
C 680.07 437.904 683.377 439.425 684.661 442.019
C 684.768 446.34 684.629 450.673 684.621 454.997
C 684.619 456.032 685.093 458.81 684.012 459.01
C 676.358 458.969 668.661 459.098 661 459.171
C 657.838 459.201 653.538 458.453 650.519 459.317
C 644.549 465.498 637.219 470.273 630.517 475.612
C 620.702 483.431 610.947 491.318 601.203 499.23
C 595.879 503.553 589.998 507.468 584.872 511.971
C 584.547 515.556 584.965 519.383 584.951 522.999
C 584.919 531.285 584.885 539.568 584.926 547.854
C 584.942 551.19 584.978 554.52 585.072 557.852
C 585.103 558.955 584.896 560.91 585.426 561.873
C 582.246 564.146 578.243 565.725 574.833 567.672
C 573.828 562.802 574.379 557.105 574.364 551.996
C 574.337 542.496 574.347 532.996 574.311 523.497
C 574.294 519.164 574.268 514.831 574.273 510.498
C 574.275 508.846 573.856 506.558 574.437 505.02
C 578.487 500.82 583.605 497.315 588.139 493.644
C 598.423 485.317 608.806 477.144 619.228 468.992
C 623.191 465.893 627.185 462.818 631.205 459.794
C 633.453 458.102 635.228 456.213 638.097 455.61
C 638.285 454.781 637.978 453.836 637.905 453.003
C 637.633 449.915 636.813 445.178 632.489 447.356
C 630.494 448.361 630.381 450.703 629.507 452.469
C 628.167 453.758 626.336 454.591 624.839 455.697
C 622.343 457.541 619.915 459.513 617.488 461.447
C 605.016 471.386 592.402 481.141 580.056 491.238
C 577.262 493.523 574.477 495.848 571.594 498.018
C 570.056 499.174 568.308 500.162 567.011 501.596
C 566.087 507.482 566.943 514.046 566.96 520.001
C 566.993 531.912 566.976 543.823 566.953 555.734
C 566.945 559.733 567.006 563.72 566.957 567.72
C 566.943 568.802 567.561 570.81 567.349 571.682
C 563.724 573.381 559.918 575.321 556.514 577.426
C 555.842 577.841 553.832 579.628 553.149 579.155
C 553.128 559.068 553.095 538.974 552.926 518.884
C 552.877 513.089 552.812 507.294 552.783 501.499
C 552.773 499.51 553.417 496.118 552.658 494.308
C 548.877 492.094 545.375 488.96 541.881 486.31
C 534.23 480.504 526.431 474.797 518.603 469.233
C 515.738 467.197 512.889 465.138 510.006 463.129
C 508.709 462.226 507.276 460.792 505.632 460.675
C 504.797 461.293 504.093 462.057 503.258 462.667
C 503.505 462.311 503.155 461.496 503.173 460.987
C 503.232 459.329 503.268 457.663 503.254 456.004
C 503.2 449.5 503.087 442.997 503.052 436.493
C 502.959 419.159 502.842 401.834 502.869 384.495
C 502.879 378.489 502.845 372.482 503.059 366.486
C 503.131 364.464 502.771 362.14 503.335 360.194 Z"
opacity="1" fill="rgb(88,131,151)" fill-rule="evenodd" />
<path d="
M 512.376 360.208
C 514.339 359.972 517.508 359.656 519.38 360.328
C 519.009 361.942 519.332 363.836 519.337 365.497
C 519.348 369.33 519.427 373.162 519.432 376.994
C 519.45 389.16 519.416 401.329 519.367 413.495
C 519.347 418.497 519.367 423.497 519.292 428.498
C 519.262 430.468 518.613 433.407 519.243 435.232
C 520.238 436.804 521.855 438.07 523.184 439.356
C 525.44 441.54 527.619 443.804 529.87 445.994
C 534.369 450.371 538.989 454.621 543.521 458.961
C 545.381 460.742 546.831 463.154 548.98 464.603
C 550.217 465.436 551.85 465.417 553.142 466.166
C 552.028 466.01 551.965 467.53 550.687 467.301
C 549.751 467.133 549.952 465.866 549.213 465.671
C 548.877 465.582 547.773 466.03 547.385 466.128
C 545.708 466.551 542.958 467.205 541.631 468.273
C 542.021 467.428 541.011 466.784 540.453 466.225
C 538.621 464.393 536.813 462.536 534.974 460.712
C 527.343 453.142 519.253 446 511.69 438.379
C 511.034 437.112 511.712 434.465 511.749 432.998
C 511.856 428.67 511.835 424.327 511.832 419.998
C 511.822 405.998 511.796 391.999 511.767 377.999
C 511.759 374.054 511.752 370.109 511.76 366.164
C 511.764 364.215 511.489 361.985 512.376 360.208 Z"
opacity="1" fill="rgb(86,237,254)" fill-rule="evenodd" />
<path d="
M 529.737 520.998
C 529.62 544.832 529.516 568.689 529.793 592.517
C 529.534 593.111 526.673 594.183 525.959 594.387
C 524.615 594.499 524.977 591.211 524.972 590.307
C 524.947 585.856 524.789 581.413 524.803 576.958
C 524.843 563.47 524.734 549.983 524.77 536.495
C 524.78 532.995 524.785 529.495 524.761 525.996
C 524.75 524.465 524.409 522.633 524.693 521.138
C 524.722 520.986 526.398 521.4 526.613 521.3
C 527.643 520.819 529.488 517.915 529.737 520.998 Z"
opacity="1" fill="rgb(113,118,122)" fill-rule="evenodd" />
<path d="
M 530.384 308.029
C 530.477 308.754 531.551 308.477 532.149 308.389
C 534.191 308.09 536.321 308.65 538.376 308.489
C 544.342 308.018 550.509 308.427 556.502 308.411
C 558.378 308.406 562.159 307.568 563.801 308.403
C 564.811 310.028 567.001 310.155 567.561 312.116
C 567.53 313.05 566.275 312.739 565.489 312.755
C 562.991 312.808 560.496 312.853 557.997 312.861
C 551.498 312.884 544.998 312.841 538.499 312.833
C 534.894 312.828 530.697 313.224 527.178 312.402
C 526.989 312.042 526.855 311.937 527.132 311.442
C 527.42 310.927 528.038 310.878 528.451 310.531
C 529.029 310.045 529.917 308.663 530.384 308.029 Z"
opacity="1" fill="rgb(212,212,212)" fill-rule="evenodd" />
<path d="
M 533.981 360.418
C 535.321 359.602 540.115 359.401 541.381 360.415
C 540.754 365.237 541.402 370.611 541.374 375.495
C 541.312 386.327 541.313 397.164 541.295 407.997
C 541.286 412.83 541.35 417.663 541.354 422.496
C 541.356 424.469 540.768 427.21 541.379 429.058
C 543.438 432.26 547.669 434.738 550.482 437.29
C 556.779 443.004 563.094 448.709 569.367 454.448
C 571.97 456.829 574.58 459.207 577.234 461.532
C 578.339 462.5 579.578 463.981 580.957 464.512
C 582.551 464.034 584.048 462.191 585.368 461.175
C 588.806 458.529 592.125 455.693 595.47 452.929
C 602.845 446.836 610.475 440.986 618.013 435.097
C 622.287 431.759 627.217 428.569 630.877 424.537
C 631.287 423.579 630.955 422.297 630.898 421.29
C 630.777 419.141 630.764 416.981 630.723 414.829
C 630.697 413.544 630.373 411.731 632.002 411.352
C 634.129 411.289 636.338 411.114 638.459 411.299
C 637.978 412.532 638.197 413.999 638.178 415.314
C 638.131 418.563 638.354 421.905 637.963 425.133
C 637.838 426.163 638.03 427.209 637.65 428.198
C 634.91 430.992 631.4 433.147 628.381 435.643
C 621.633 441.222 614.885 446.811 607.949 452.157
C 601.183 457.372 594.708 462.967 587.855 468.067
C 585.415 469.883 583.085 472.159 580.458 473.683
C 579.105 473.325 577.737 471.356 576.724 470.424
C 573.669 467.615 570.376 465.06 567.292 462.279
C 559.054 454.851 550.817 447.432 542.65 439.928
C 539.838 437.345 536.506 434.971 533.988 432.112
C 533.555 429.039 534.078 425.772 534.051 422.674
C 533.997 416.283 533.956 409.893 533.952 403.5
C 533.945 394.042 534.098 384.585 534.091 375.13
C 534.087 370.27 533.641 365.256 533.981 360.418 Z"
opacity="1" fill="rgb(79,237,254)" fill-rule="evenodd" />
<path d="
M 541.631 468.273
C 542.958 467.205 545.708 466.551 547.385 466.128
C 547.773 466.03 548.877 465.582 549.213 465.671
C 549.952 465.866 549.751 467.133 550.687 467.301
C 551.965 467.53 552.028 466.01 553.142 466.166
C 558.879 468.178 558.226 477.481 554.847 481.316
C 552.149 484.379 548.054 484.127 544.669 482.511
C 543.246 481.831 541.832 480.935 540.936 479.611
C 539.86 478.019 539.286 476.076 539.442 474.153
C 539.62 471.956 540.587 470.151 541.631 468.273 Z
M 550.497 469.492
C 549.51 467.501 547.226 467.953 545.933 469.386
C 544.936 469.722 544.069 470.118 543.358 470.911
C 542.923 471.659 542.641 472.461 542.501 473.318
C 541.25 480.985 553.752 478.931 551.793 472.126
C 551.532 471.22 551.065 470.24 550.497 469.492 Z"
opacity="1" fill="rgb(69,246,254)" fill-rule="evenodd" />
<path d="
M 541.381 360.415
C 542.507 359.967 543.804 360.199 545.002 360.199
C 547.502 360.2 550.003 360.162 552.504 360.164
C 553.501 360.165 555.646 359.721 556.382 360.417
C 555.938 363.85 556.232 367.53 556.191 370.996
C 556.099 378.836 556.18 386.662 556.247 394.501
C 556.275 397.836 556.135 401.156 556.055 404.489
C 556.017 406.073 555.632 407.906 556.029 409.461
C 556.586 411.645 559.186 412.511 559.923 414.433
C 559.5 415.796 558.45 416.863 557.852 418.149
C 557.057 419.86 557.12 422.115 557.492 423.93
C 558.678 429.713 564.758 433.73 570.49 431.576
C 573.614 430.401 575.475 428.008 577.323 425.38
C 586.7 425.048 596.121 425.186 605.502 425.202
C 609.653 425.209 614.607 426.036 618.674 425.188
C 618.731 422.741 619.052 420.101 618.616 417.68
C 606.087 418.234 593.537 417.693 581.002 417.906
C 581.317 417.343 580.332 416.307 580.062 415.79
C 579.275 412.709 579.606 408.95 579.575 405.782
C 579.521 400.158 579.352 394.538 579.316 388.909
C 579.276 382.606 579.277 376.303 579.245 369.999
C 579.229 366.946 578.692 363.403 579.253 360.411
C 580.551 359.615 582.507 359.881 584.008 359.867
C 584.447 359.863 584.955 359.672 585.264 360.04
C 585.288 370.525 585.396 381.013 585.37 391.498
C 585.354 398.082 584.971 404.86 585.561 411.413
C 601.017 411.267 616.562 411.846 632.002 411.352
C 630.373 411.731 630.697 413.544 630.723 414.829
C 630.764 416.981 630.777 419.141 630.898 421.29
C 630.955 422.297 631.287 423.579 630.877 424.537
C 627.217 428.569 622.287 431.759 618.013 435.097
C 610.475 440.986 602.845 446.836 595.47 452.929
C 592.125 455.693 588.806 458.529 585.368 461.175
C 584.048 462.191 582.551 464.034 580.957 464.512
C 579.578 463.981 578.339 462.5 577.234 461.532
C 574.58 459.207 571.97 456.829 569.367 454.448
C 563.094 448.709 556.779 443.004 550.482 437.29
C 547.669 434.738 543.438 432.26 541.379 429.058
C 540.768 427.21 541.356 424.469 541.354 422.496
C 541.35 417.663 541.286 412.83 541.295 407.997
C 541.313 397.164 541.312 386.327 541.374 375.495
C 541.402 370.611 540.754 365.237 541.381 360.415 Z"
opacity="1" fill="rgb(93,136,156)" fill-rule="evenodd" />
<path d="
M 545.933 469.386
C 547.243 469.227 549.493 468.416 550.497 469.492
C 551.065 470.24 551.532 471.22 551.793 472.126
C 553.752 478.931 541.25 480.985 542.501 473.318
C 542.641 472.461 542.923 471.659 543.358 470.911
C 544.069 470.118 544.936 469.722 545.933 469.386 Z"
opacity="1" fill="rgb(65,209,251)" fill-rule="evenodd" />
<path d="
M 550.497 469.492
C 549.493 468.416 547.243 469.227 545.933 469.386
C 547.226 467.953 549.51 467.501 550.497 469.492 Z"
opacity="0.996" fill="rgb(58,227,254)" fill-rule="evenodd" />
<path d="
M 550.477 662.106
C 551.442 653.881 554.043 646.234 558.943 639.486
C 571.68 621.946 596.831 615.932 616.097 625.684
C 620.644 627.985 624.676 631.182 628.34 634.699
C 629.463 635.778 631.277 637.003 631.98 638.397
C 627.618 642.546 621.679 645.083 617.411 649.355
C 616.821 649.105 616.275 648.03 615.839 647.533
C 614.656 646.187 613.394 644.896 612.01 643.756
C 607.548 640.079 602.546 638.221 596.79 637.927
C 594.067 637.788 591.25 637.99 588.627 638.766
C 564.858 645.802 562.55 685.174 585.405 694.798
C 588.573 696.132 592.059 696.767 595.491 696.802
C 599.273 696.842 603.035 695.996 606.478 694.428
C 611.18 692.286 614.786 689.243 618.032 685.282
C 619.44 685.764 620.755 687.455 622 688.335
C 625.297 690.665 629.025 692.909 632.053 695.565
C 630.351 698.682 626.67 701.744 624.001 704.036
C 606.875 718.742 580.353 716.772 564.072 701.849
C 553.279 691.957 549.166 676.341 550.477 662.106 Z"
opacity="1" fill="rgb(0,119,185)" fill-rule="evenodd" />
<path d="
M 556.382 360.417
C 557.664 359.757 561.699 359.608 562.929 360.418
C 563.91 371.479 563.439 382.789 563.398 393.893
C 563.378 399.377 562.632 406.376 564.953 411.505
C 568.121 411.595 571.759 411.711 574.275 413.895
C 575.606 415.05 576.267 416.785 577.564 417.925
C 578.71 417.962 579.856 417.917 581.002 417.906
C 593.537 417.693 606.087 418.234 618.616 417.68
C 619.052 420.101 618.731 422.741 618.674 425.188
C 614.607 426.036 609.653 425.209 605.502 425.202
C 596.121 425.186 586.7 425.048 577.323 425.38
C 575.475 428.008 573.614 430.401 570.49 431.576
C 564.758 433.73 558.678 429.713 557.492 423.93
C 557.12 422.115 557.057 419.86 557.852 418.149
C 558.45 416.863 559.5 415.796 559.923 414.433
C 559.186 412.511 556.586 411.645 556.029 409.461
C 555.632 407.906 556.017 406.073 556.055 404.489
C 556.135 401.156 556.275 397.836 556.247 394.501
C 556.18 386.662 556.099 378.836 556.191 370.996
C 556.232 367.53 555.938 363.85 556.382 360.417 Z
M 562.878 418.954
C 562.172 420.678 562.745 424.031 564.48 425.072
C 566.698 426.402 570.594 425.424 571.755 423.189
C 574.125 418.628 565.614 415.787 562.878 418.954 Z"
opacity="1" fill="rgb(72,233,254)" fill-rule="evenodd" />
<path d="
M 562.929 360.418
C 563.958 359.783 565.659 360.144 566.843 360.149
C 569.757 360.163 572.671 360.15 575.585 360.086
C 576.375 360.069 578.841 359.574 579.253 360.411
C 578.692 363.403 579.229 366.946 579.245 369.999
C 579.277 376.303 579.276 382.606 579.316 388.909
C 579.352 394.538 579.521 400.158 579.575 405.782
C 579.606 408.95 579.275 412.709 580.062 415.79
C 580.332 416.307 581.317 417.343 581.002 417.906
C 579.856 417.917 578.71 417.962 577.564 417.925
C 576.267 416.785 575.606 415.05 574.275 413.895
C 571.759 411.711 568.121 411.595 564.953 411.505
C 562.632 406.376 563.378 399.377 563.398 393.893
C 563.439 382.789 563.91 371.479 562.929 360.418 Z"
opacity="1" fill="rgb(88,117,131)" fill-rule="evenodd" />
<path d="
M 562.878 418.954
C 565.614 415.787 574.125 418.628 571.755 423.189
C 570.594 425.424 566.698 426.402 564.48 425.072
C 562.745 424.031 562.172 420.678 562.878 418.954 Z"
opacity="1" fill="rgb(63,177,221)" fill-rule="evenodd" />
<path d="
M 585.485 348.091
C 585.759 347.817 585.643 346.361 586.177 345.736
C 587.164 344.579 588.703 343.909 589.767 342.786
C 591.723 341.09 593.342 339.007 595.195 337.208
C 596.223 336.526 597.014 335.604 597.757 334.623
C 598.538 333.574 599.653 332.907 600.17 331.707
C 601.606 330.722 600.58 330.216 600.78 329.013
C 601.184 326.578 601.087 323.974 601.072 321.496
C 601.009 311.158 601.019 300.808 601.015 290.476
C 597.795 289.564 593.35 290.365 589.996 290.372
C 585.497 290.382 580.997 290.374 576.498 290.4
C 573.814 290.415 570.888 290.186 568.257 290.767
C 568.242 297.813 568.524 305.126 567.561 312.116
C 567.001 310.155 564.811 310.028 563.801 308.403
C 562.979 301.13 564.135 293.473 564.104 286.162
C 565.834 285.701 567.62 285.997 569.387 286.02
C 572.15 286.055 574.916 285.997 577.678 285.96
C 587.14 285.833 596.779 285.479 606.225 286.081
C 607.078 289.271 606.414 293.488 606.42 296.789
C 606.435 304.19 606.524 311.586 606.534 318.99
C 606.539 322.03 606.558 325.07 606.535 328.11
C 606.524 329.554 606.713 331.19 606.247 332.559
C 604.338 334.659 602.071 336.412 600.02 338.368
C 597.812 340.352 595.692 342.429 593.464 344.393
C 592.13 345.558 590.819 347.21 589.25 348.039
C 588.036 348.274 586.741 347.912 585.485 348.091 Z"
opacity="1" fill="rgb(159,160,160)" fill-rule="evenodd" />
<path d="
M 574.833 567.672
C 572.311 568.421 569.67 570.408 567.349 571.682
C 567.561 570.81 566.943 568.802 566.957 567.72
C 567.006 563.72 566.945 559.733 566.953 555.734
C 566.976 543.823 566.993 531.912 566.96 520.001
C 566.943 514.046 566.087 507.482 567.011 501.596
C 568.308 500.162 570.056 499.174 571.594 498.018
C 574.477 495.848 577.262 493.523 580.056 491.238
C 592.402 481.141 605.016 471.386 617.488 461.447
C 619.915 459.513 622.343 457.541 624.839 455.697
C 626.336 454.591 628.167 453.758 629.507 452.469
C 630.381 450.703 630.494 448.361 632.489 447.356
C 636.813 445.178 637.633 449.915 637.905 453.003
C 637.978 453.836 638.285 454.781 638.097 455.61
C 635.228 456.213 633.453 458.102 631.205 459.794
C 627.185 462.818 623.191 465.893 619.228 468.992
C 608.806 477.144 598.423 485.317 588.139 493.644
C 583.605 497.315 578.487 500.82 574.437 505.02
C 573.856 506.558 574.275 508.846 574.273 510.498
C 574.268 514.831 574.294 519.164 574.311 523.497
C 574.347 532.996 574.337 542.496 574.364 551.996
C 574.379 557.105 573.828 562.802 574.833 567.672 Z"
opacity="1" fill="rgb(63,228,252)" fill-rule="evenodd" />
<path d="
M 684.012 459.01
C 684.923 459.203 684.697 460.117 684.695 460.911
C 684.69 462.776 684.751 464.648 684.73 466.51
C 684.84 465.653 682.711 465.866 682.142 465.874
C 679.264 465.915 676.383 465.834 673.504 465.864
C 668.907 465.912 664.311 465.952 659.713 465.936
C 657.963 465.929 655.241 465.441 653.614 466.163
C 651.705 467.011 649.825 469.24 648.161 470.531
C 643.602 474.067 639.179 477.768 634.64 481.327
C 625.482 488.508 616.603 496.042 607.473 503.254
C 602.596 507.105 596.685 510.876 592.621 515.606
C 592.093 516.73 592.329 518.273 592.319 519.498
C 592.296 522.332 592.318 525.165 592.259 527.998
C 592.115 535.004 591.927 541.987 591.881 548.994
C 591.861 552.103 591.601 555.356 591.895 558.449
C 589.981 559.885 587.532 560.757 585.426 561.873
C 584.896 560.91 585.103 558.955 585.072 557.852
C 584.978 554.52 584.942 551.19 584.926 547.854
C 584.885 539.568 584.919 531.285 584.951 522.999
C 584.965 519.383 584.547 515.556 584.872 511.971
C 589.998 507.468 595.879 503.553 601.203 499.23
C 610.947 491.318 620.702 483.431 630.517 475.612
C 637.219 470.273 644.549 465.498 650.519 459.317
C 653.538 458.453 657.838 459.201 661 459.171
C 668.661 459.098 676.358 458.969 684.012 459.01 Z"
opacity="1" fill="rgb(56,226,253)" fill-rule="evenodd" />
<path d="
M 684.73 466.51
C 685.348 473.104 684.229 479.867 684.777 486.473
C 684.569 486.008 683.962 486.128 683.519 486.139
C 682.181 486.172 680.843 486.158 679.505 486.154
C 674.004 486.138 668.503 486.201 663.002 486.2
C 659.428 486.199 655.853 486.169 652.279 486.091
C 650.845 486.059 648.795 485.707 647.439 486.257
C 646.233 486.745 645.142 488.157 644.166 489.01
C 641.906 490.984 639.57 492.854 637.234 494.736
C 629.186 501.225 621.28 507.894 613.239 514.393
C 610.354 516.724 607.454 519.039 604.468 521.242
C 602.908 522.392 600.923 523.319 599.838 524.966
C 599.699 527.189 600.225 529.782 601.149 531.788
C 602.828 531.981 605.303 529.829 606.54 528.824
C 610.526 525.585 614.541 522.384 618.537 519.157
C 625.981 513.144 633.564 507.303 640.985 501.262
C 643.966 498.835 647.013 495.105 650.554 493.524
C 652.149 492.812 654.532 493.228 656.242 493.23
C 660.663 493.235 665.083 493.249 669.503 493.236
C 673.171 493.225 676.838 493.211 680.505 493.232
C 681.532 493.238 684.035 492.804 684.832 493.442
C 684.822 496.793 684.77 500.148 684.759 503.501
C 684.755 504.866 685.141 506.875 684.595 508.133
C 679.312 511.745 673.177 514.554 667.524 517.559
C 664.368 519.237 661.197 521.484 657.912 522.839
C 657.361 522.971 657.317 522.509 657.229 522.057
C 656.943 520.6 656.564 519.288 655.659 518.084
C 653.409 515.093 650.158 512.817 646.273 513.346
C 638.321 514.43 635.195 523.805 640.386 529.578
C 640.268 530.096 639.081 530.221 638.64 530.596
C 636.818 532.143 635.162 533.799 633.361 535.249
C 621.823 540.958 610.8 547.98 599.424 554.038
C 596.87 555.398 594.497 557.213 591.895 558.449
C 591.601 555.356 591.861 552.103 591.881 548.994
C 591.927 541.987 592.115 535.004 592.259 527.998
C 592.318 525.165 592.296 522.332 592.319 519.498
C 592.329 518.273 592.093 516.73 592.621 515.606
C 596.685 510.876 602.596 507.105 607.473 503.254
C 616.603 496.042 625.482 488.508 634.64 481.327
C 639.179 477.768 643.602 474.067 648.161 470.531
C 649.825 469.24 651.705 467.011 653.614 466.163
C 655.241 465.441 657.963 465.929 659.713 465.936
C 664.311 465.952 668.907 465.912 673.504 465.864
C 676.383 465.834 679.264 465.915 682.142 465.874
C 682.711 465.866 684.84 465.653 684.73 466.51 Z"
opacity="1" fill="rgb(81,112,126)" fill-rule="evenodd" />
<path d="
M 684.777 486.473
C 684.812 488.77 684.585 491.159 684.832 493.442
C 684.035 492.804 681.532 493.238 680.505 493.232
C 676.838 493.211 673.171 493.225 669.503 493.236
C 665.083 493.249 660.663 493.235 656.242 493.23
C 654.532 493.228 652.149 492.812 650.554 493.524
C 647.013 495.105 643.966 498.835 640.985 501.262
C 633.564 507.303 625.981 513.144 618.537 519.157
C 614.541 522.384 610.526 525.585 606.54 528.824
C 605.303 529.829 602.828 531.981 601.149 531.788
C 600.225 529.782 599.699 527.189 599.838 524.966
C 600.923 523.319 602.908 522.392 604.468 521.242
C 607.454 519.039 610.354 516.724 613.239 514.393
C 621.28 507.894 629.186 501.225 637.234 494.736
C 639.57 492.854 641.906 490.984 644.166 489.01
C 645.142 488.157 646.233 486.745 647.439 486.257
C 648.795 485.707 650.845 486.059 652.279 486.091
C 655.853 486.169 659.428 486.199 663.002 486.2
C 668.503 486.201 674.004 486.138 679.505 486.154
C 680.843 486.158 682.181 486.172 683.519 486.139
C 683.962 486.128 684.569 486.008 684.777 486.473 Z"
opacity="1" fill="rgb(53,224,254)" fill-rule="evenodd" />
<path d="
M 698.997 348.572
C 699.501 348.717 700.617 351.967 700.319 352.649
C 691.396 353.958 682.071 352.116 673.098 353.206
C 673.491 357.558 673.122 362.126 673.156 366.503
C 673.169 368.103 672.837 370.123 673.185 371.668
C 665.487 371.426 657.704 371.828 649.996 371.83
C 644.951 371.831 639.573 371.289 634.568 371.83
C 633.996 370.835 634.315 369.282 634.068 368.161
C 633.326 364.796 633.527 360.947 633.667 357.51
C 633.729 355.995 634.126 354.477 633.946 352.956
C 631.3 352.082 627.296 352.77 624.499 352.783
C 620.028 352.802 615.556 352.849 611.085 352.839
C 609.02 352.834 606.541 352.405 604.52 352.874
C 603.64 353.078 602.831 354.512 601.928 354.994
C 601.881 352.934 601.888 350.884 601.936 348.824
C 609.055 348.293 616.362 348.628 623.503 348.668
C 628.159 348.694 633.039 348.276 637.667 348.686
C 637.55 354.905 637.309 361.217 637.727 367.43
C 638.881 368.324 642.518 367.764 644 367.769
C 650 367.786 655.999 367.781 661.999 367.74
C 663.665 367.728 665.332 367.688 666.998 367.692
C 667.376 367.692 668.625 367.891 668.862 367.588
C 668.904 361.45 668.432 354.877 669.175 348.784
C 679.09 348.457 689.074 348.46 698.997 348.572 Z"
opacity="1" fill="rgb(161,161,162)" fill-rule="evenodd" />
<path d="
M 601.928 354.994
C 602.831 354.512 603.64 353.078 604.52 352.874
C 606.541 352.405 609.02 352.834 611.085 352.839
C 615.556 352.849 620.028 352.802 624.499 352.783
C 627.296 352.77 631.3 352.082 633.946 352.956
C 634.126 354.477 633.729 355.995 633.667 357.51
C 633.527 360.947 633.326 364.796 634.068 368.161
C 634.315 369.282 633.996 370.835 634.568 371.83
C 639.573 371.289 644.951 371.831 649.996 371.83
C 657.704 371.828 665.487 371.426 673.185 371.668
C 672.837 370.123 673.169 368.103 673.156 366.503
C 673.122 362.126 673.491 357.558 673.098 353.206
C 682.071 352.116 691.396 353.958 700.319 352.649
C 700.617 351.967 699.501 348.717 698.997 348.572
C 701.319 348.622 703.811 348.329 706.106 348.67
C 706.255 353.596 706.116 358.57 706.08 363.501
C 705.168 364.494 704.466 362.881 703.725 362.546
C 702.997 362.216 702.736 363.605 702.173 363.788
C 701.485 364.011 701.616 363.03 700.912 363.915
C 699.752 365.374 700.18 368.221 700.115 369.963
C 699.922 375.069 700.67 380.728 699.708 385.746
C 697.991 386.75 694.964 386.3 693.033 386.333
C 688.129 386.417 683.208 386.521 678.307 386.519
C 660.205 386.51 642.103 386.334 624.001 386.396
C 618.47 386.415 612.913 386.204 607.385 386.416
C 605.98 386.47 602.576 387.306 601.658 386.02
C 601.745 375.707 601.389 365.291 601.928 354.994 Z"
opacity="1" fill="rgb(136,137,136)" fill-rule="evenodd" />
<path d="
M 601.658 386.02
C 602.576 387.306 605.98 386.47 607.385 386.416
C 612.913 386.204 618.47 386.415 624.001 386.396
C 642.103 386.334 660.205 386.51 678.307 386.519
C 683.208 386.521 688.129 386.417 693.033 386.333
C 694.964 386.3 697.991 386.75 699.708 385.746
C 700.67 380.728 699.922 375.069 700.115 369.963
C 700.18 368.221 699.752 365.374 700.912 363.915
C 701.616 363.03 701.485 364.011 702.173 363.788
C 702.736 363.605 702.997 362.216 703.725 362.546
C 704.466 362.881 705.168 364.494 706.08 363.501
C 706.25 368.994 706.182 374.504 706.198 380.001
C 706.204 382.086 706.815 385.241 705.971 387.159
C 703.375 389.758 700.671 392.481 697.895 394.882
C 698.174 393.693 697.146 393.872 696.36 394.156
C 695.968 393.474 694.21 393.884 693.517 393.889
C 691.063 393.904 689.503 393.836 687.372 395.039
C 686.644 395.451 685.732 394.956 684.996 395.419
C 667.921 396.457 650.608 395.839 633.504 395.651
C 628.186 395.593 622.887 395.597 617.579 395.596
C 615.271 395.595 612.528 395.119 610.282 395.641
C 607.892 393.601 605.474 391.102 603.456 388.7
C 602.817 387.94 601.725 387.037 601.658 386.02 Z"
opacity="1" fill="rgb(103,104,105)" fill-rule="evenodd" />
<path d="
M 610.282 395.641
C 612.528 395.119 615.271 395.595 617.579 395.596
C 622.887 395.597 628.186 395.593 633.504 395.651
C 650.608 395.839 667.921 396.457 684.996 395.419
C 687.697 395.592 690.39 395.235 693.086 395.162
C 694.22 395.132 695.609 395.127 696.36 394.156
C 697.146 393.872 698.174 393.693 697.895 394.882
C 696.411 396.53 694.698 397.973 693.177 399.588
C 691.769 400.258 689.061 399.728 687.493 399.729
C 682.66 399.731 677.827 399.689 672.994 399.699
C 659.494 399.729 645.995 399.767 632.495 399.764
C 628.495 399.763 624.494 399.734 620.493 399.721
C 618.555 399.715 616.211 400.125 614.346 399.557
C 612.892 398.686 611.258 397.014 610.282 395.641 Z"
opacity="1" fill="rgb(77,81,82)" fill-rule="evenodd" />
<path d="
M 657.912 522.839
C 655.517 524.805 651.788 525.998 649.02 527.45
C 645.719 529.183 642.365 530.756 638.992 532.33
C 637.056 533.234 635.435 534.621 633.361 535.249
C 635.162 533.799 636.818 532.143 638.64 530.596
C 639.081 530.221 640.268 530.096 640.386 529.578
C 635.195 523.805 638.321 514.43 646.273 513.346
C 650.158 512.817 653.409 515.093 655.659 518.084
C 656.564 519.288 656.943 520.6 657.229 522.057
C 657.317 522.509 657.361 522.971 657.912 522.839 Z"
opacity="1" fill="rgb(35,214,247)" fill-rule="evenodd" />
<path d="
M 632.951 646.625
C 637.627 646.657 642.325 646.613 647.007 646.592
C 648.268 646.586 651.129 646.012 652.022 646.877
C 652.799 650.22 654.347 653.447 655.453 656.695
C 658.176 664.692 661.055 672.638 663.825 680.619
C 664.812 683.462 665.686 686.344 666.722 689.169
C 667.026 689.996 667.195 691.832 667.932 692.349
C 672.513 677.048 678.113 661.891 683.471 646.849
C 684.466 646.139 687.269 646.675 688.509 646.69
C 691.507 646.727 694.507 646.713 697.505 646.689
C 699.017 646.677 700.616 646.463 702.09 646.851
C 699.913 652.701 697.313 658.415 695.121 664.273
C 689.336 679.737 683.781 695.289 677.953 710.738
C 676.035 715.822 674.257 720.963 672.32 726.042
C 670.984 729.545 669.389 733.524 666.265 735.847
C 658.706 741.469 648.766 739.328 639.995 739.378
C 639.432 738.388 640.073 736.469 640.182 735.351
C 640.533 731.755 639.973 727.423 640.844 723.949
C 644.744 724.362 649.965 725.281 653.754 723.976
C 656.29 723.102 657.669 719.586 658.644 717.36
C 658.979 716.596 659.514 715.758 659.66 714.933
C 659.874 713.719 658.147 710.921 657.669 709.752
C 655.822 705.241 654.016 700.713 652.146 696.211
C 645.356 679.868 640.203 662.756 632.951 646.625 Z"
opacity="1" fill="rgb(0,102,171)" fill-rule="evenodd" />
<path d="
M 660.499 411.322
C 662.421 411.291 664.535 411.006 666.433 411.302
C 665.747 413.062 666.157 415.61 666.162 417.502
C 666.172 421.687 666.177 425.872 666.26 430.056
C 666.314 432.79 666.603 435.397 665.079 437.804
C 663.067 440.98 659.094 444.656 655.493 445.822
C 651.838 447.005 648.707 444.74 649.067 440.788
C 651.782 437.943 658.295 437.368 658.851 432.662
C 659.441 427.661 659.288 422.222 659.014 417.202
C 658.907 415.259 658.395 412.231 660.499 411.322 Z"
opacity="1" fill="rgb(58,229,254)" fill-rule="evenodd" />
<path d="
M 678.964 411.309
C 680.809 411.179 682.735 411.093 684.583 411.183
C 684.943 421.455 684.501 431.751 684.661 442.019
C 683.377 439.425 680.07 437.904 678.893 435.102
C 678.173 433.39 678.553 431.176 678.544 429.36
C 678.526 425.406 678.56 421.451 678.59 417.497
C 678.604 415.612 678.133 413.021 678.964 411.309 Z"
opacity="1" fill="rgb(56,228,254)" fill-rule="evenodd" />
<path d="
M 696.36 394.156
C 695.609 395.127 694.22 395.132 693.086 395.162
C 690.39 395.235 687.697 395.592 684.996 395.419
C 685.732 394.956 686.644 395.451 687.372 395.039
C 689.503 393.836 691.063 393.904 693.517 393.889
C 694.21 393.884 695.968 393.474 696.36 394.156 Z"
opacity="0.996" fill="rgb(76,74,80)" fill-rule="evenodd" />
<path d="
M 708.301 620.245
C 711.758 619.954 715.255 620.181 718.724 620.138
C 721.046 620.11 723.363 619.777 725.685 620.021
C 726.57 623.517 725.804 627.9 725.832 631.503
C 725.892 639.146 726.299 646.943 725.924 654.569
C 728.027 653.734 729.977 650.895 731.857 649.506
C 736.014 646.436 741.691 644.758 746.867 644.985
C 751.389 645.183 755.912 646.057 759.925 648.218
C 778.216 658.069 780.583 686.697 769.218 702.558
C 762.146 712.427 747.875 716.973 736.626 711.985
C 732.555 710.179 729.74 707.347 726.973 703.982
C 726.66 703.696 726.452 703.046 726.035 703.124
C 725.982 703.134 726.024 705.014 726.011 705.28
C 725.891 707.703 726.206 710.315 725.862 712.704
C 720.062 712.889 714.248 712.575 708.451 712.896
C 707.57 710.97 708.422 707.136 708.445 704.997
C 708.511 698.84 708.438 692.681 708.451 686.525
C 708.478 673.352 708.312 660.157 708.46 646.99
C 708.56 638.1 708.873 629.123 708.301 620.245 Z
M 725.451 674.608
C 724.324 682.358 725.503 690.315 731.864 695.529
C 738.078 700.622 747.714 699.253 753.133 693.637
C 755.732 690.943 757.334 687.059 757.888 683.398
C 759.036 675.813 756.461 667.22 749.894 662.849
C 739.944 656.226 727.106 663.225 725.451 674.608 Z"
opacity="1" fill="rgb(0,118,184)" fill-rule="evenodd" />
<path d="
M 782.463 674.098
C 783.889 666.491 786.444 659.766 792.075 654.192
C 804.125 642.263 824.759 642.161 836.802 654.028
C 842.486 659.629 845.603 667.548 846.246 675.406
C 846.499 678.51 845.615 682.324 846.309 685.304
C 838.084 684.83 829.738 685.332 821.502 685.332
C 814.2 685.332 806.677 684.801 799.41 685.484
C 799.733 695.841 810.688 700.96 819.787 699.26
C 824.716 698.34 827.999 695.888 832.083 693.325
C 835.021 695.557 837.676 698.387 840.415 700.867
C 841.033 701.427 843.051 702.74 843.036 703.527
C 842.165 704.807 840.382 705.704 839.145 706.603
C 834.778 709.779 829.771 712.252 824.452 713.305
C 807.581 716.645 789.403 709.013 783.795 691.899
C 781.948 686.261 781.703 679.955 782.463 674.098 Z
M 799.516 672.622
C 799.316 673.399 799.36 673.055 799.324 673.645
C 803.509 673.419 807.803 673.742 812.002 673.735
C 817.887 673.727 823.803 673.466 829.683 673.701
C 828.978 672.614 829.14 670.994 828.661 669.779
C 827.528 666.909 825.709 664.212 823.289 662.281
C 817.815 657.911 808.51 658.828 803.751 663.879
C 801.438 666.334 800.29 669.398 799.516 672.622 Z"
opacity="1" fill="rgb(0,111,178)" fill-rule="evenodd" />
<path d="
M 855.336 647.571
C 855.397 647.364 855.458 647.157 855.518 646.95
C 859.373 646.822 863.234 646.853 867.095 646.842
C 868.861 646.837 870.923 646.531 872.641 646.89
C 872.889 650.106 871.89 654.076 872.955 657.143
C 877.235 652.726 880.209 647.717 886.547 645.869
C 889.352 645.051 892.276 645.282 895.156 645.179
C 895.059 649.612 895.157 654.074 895.205 658.513
C 895.219 659.884 894.757 662.486 895.283 663.699
C 891.736 663.604 888.497 662.774 884.956 663.896
C 883.399 664.39 881.91 665.233 880.612 666.217
C 871.334 673.256 872.936 684.681 872.928 695.007
C 872.926 698.007 872.929 701.007 872.946 704.007
C 872.961 706.721 873.536 710.166 872.895 712.8
C 867.115 712.828 861.199 712.414 855.435 712.908
C 854.771 711.966 855.312 709.196 855.316 708.001
C 855.328 703.832 855.399 699.665 855.406 695.496
C 855.431 679.54 854.962 663.517 855.336 647.571 Z"
opacity="1" fill="rgb(1,115,183)" fill-rule="evenodd" />

</svg>